<svg version="1.0" xmlns="http://www.w3.org/2000/svg" width="325.333" height="325.333" viewBox="0 0 244 244"><path d="M114.9.4c-.2.2-4.7.9-9.9 1.5-16.2 1.9-34.6 8.8-49.5 18.6C43.8 28.1 34.7 36.8 22 52.7c-1.2 1.5-10 17.4-10 18.2-.1.3-.9 2.4-2 4.6-1.1 2.2-1.9 4.7-2 5.5 0 .9-.4 2-.9 2.5C5.6 85.1 3.3 96 .9 113.2c-1 7.1-1 10.5.1 17.5 2.6 18.1 4.6 27.9 6 29.8.4.5 1 2.3 1.4 3.9.4 1.7 1.6 4.2 2.7 5.7 1 1.5 1.9 3.1 1.9 3.6 0 1.4 3.9 8.3 9.6 16.9 5.3 8.1 16.9 20.8 23.2 25.5 1.8 1.3 4.3 3.2 5.5 4.2 1.2 1.1 3.6 2.6 5.2 3.4 1.7.9 3.2 1.9 3.5 2.3 1 1.3 19.5 9.7 25 11.3 13.8 4.1 18.8 4.7 38 4.7 10.5 0 18.9-.4 18.6-.9-.3-.4.6-.6 1.9-.3 1.4.2 3.7 0 5.3-.6 1.5-.6 5.7-1.8 9.5-2.8 3.7-1.1 6.7-2.2 6.7-2.6 0-.5.7-.8 1.7-.8 1.5 0 16.2-6.8 17.3-8 .3-.3 2.2-1.6 4.3-2.8 4.3-2.5 3.8-2.1 13.5-10.2 4.4-3.7 7-6.6 6.6-7.3-.4-.7-.4-.9 0-.5.9.8 4.6-2.2 4.6-3.8 0-.7.6-1.4 1.4-1.7 3.2-1.3 21.6-32.7 21.6-36.9 0-.7.4-1.8.9-2.4 2.1-2.2 6.4-27 6.5-37.9.1-12.1-2.8-29.4-6.6-40-3.8-10.2-10.8-24.4-15-30-7.6-10.2-20.2-22.8-30.3-30.3-13.4-9.9-34.6-17.9-54.9-20.7-10.5-1.4-20.8-2-21.7-1.1zM129 21.5c0 .8-.9 2-2 2.8-1.9 1.3-2.2 3-2 10.4.1 2.1.6 2.3 6.6 2.3 3.7 0 6.3.4 5.9.9-.3.5.2 1.6 1 2.4 1.2 1.2 1.5 4.3 1.5 14.5 0 7.2-.3 13.7-.6 14.6-.5 1.3-3.1 1.5-16.5 1.5H107V59.7c0-6.2-.3-12.9-.6-15-.5-3-.4-3.7 1-3.7.9 0 1.6-.8 1.6-2 0-1.8.7-2 6-2 5.8 0 6-.1 6.2-2.8.3-5.7-.4-8.6-2.5-10.3-1.8-1.4-2-2.1-1.1-3.6.6-1 2.1-2.3 3.4-3 2-1 2.8-.8 5.2.8 1.5 1.1 2.8 2.7 2.8 3.4zm-21.6 15.4c.3.5-.1 1.2-1 1.5-2.2.9-2.4.8-2.4-.9 0-1.6 2.5-2.1 3.4-.6zm34.6.7c0 .9-.5 1.4-1.2 1.2-1.8-.6-2.1-2.8-.4-2.8.9 0 1.6.7 1.6 1.6zM74 49.5c1.7 2.5 2.9 4.9 2.5 5.4-.3.5-.1 1.3.5 1.6 1.4.9.7 3.1-4.5 14-2.3 4.9-4.8 10.6-5.5 12.7-.9 2.3-1.8 3.4-2.7 3.1-2.2-.9-2.4-.2 9.3-24.7 1.3-2.8 2-5.2 1.6-5.5-.9-.6-5.2-9.3-5.2-10.4 0-1.5 1-.5 4 3.8zm29.7.7c-.3.7-.5.2-.5-1.2s.2-1.9.5-1.3c.2.7.2 1.9 0 2.5zM176 68.6c3.3 7 6 13 6 13.4 0 .5.6 1 1.3 1.3.9.3.9.7-.2 2-1.6 2.1-3.1 2.2-3.1.3 0-.7-1.2-4-2.6-7.2-4.9-11.1-7.5-16.9-8.5-18.7-.9-1.6-.5-3.7.7-3.7.2 0 3.1 5.7 6.4 12.6zm-97.5-1.7c-.3.6-1.1 1.1-1.7 1.1-.6 0-.6-.6.2-1.5 1.4-1.7 2.6-1.3 1.5.4zm5.5.6c1.4 1.9 1.4 1.9-.2.6-1-.7-1.8-1.8-1.8-2.4 0-.6.1-.8.3-.6.1.2.9 1.3 1.7 2.4zm85.8-.6c.3.8-.1 1.2-.9.9-.7-.2-1.5-1-1.7-1.7-.3-.8.1-1.2.9-.9.7.2 1.5 1 1.7 1.7zm9.2-.9c0 .5-.5 1-1.1 1-.5 0-.7-.5-.4-1 .3-.6.8-1 1.1-1 .2 0 .4.4.4 1zm-96.2 5.9c.6.9 2 3.2 2.9 5.1 2.2 4.6 2 4.5 3.8 3 .9-.8 1.5-.8 1.5-.2 0 .6-.4 1.4-1 1.7-.5.3-1 1.6-1.1 2.8 0 1.2-1.6 4.9-3.4 8.2-6.2 10.8-6.7 13.5-2.5 13.5 2.3 0 2.7 1.5.5 2.4-2.2.8-1.9 2.6.4 2.6 2.4 0 3.2 1.1 2.2 2.8-.6 1-1.1.9-2.1-.3-1.7-2-3.6-1.9-4.5.2-.9 2.6-3.5 15.1-3.5 17.3 0 1.2.5 1.7 1.4 1.4 1.9-.7 2.9 4.1 1.4 6.6-1.5 2.3-3.6 2.3-5.2-.2-1.3-2.1 0-3.6 1.6-2 1.4 1.4 3.8 1.6 3.8.3 0-.5-1-1.3-2.3-1.8-1.2-.4-7.8-4.6-14.6-9.3l-12.3-8.5.5-7.7c.6-7.3 1.6-14.6 3.9-26.7.8-4.4 1.2-5.1 2-3.7.7 1.2.5 5.9-.7 14.9-2.7 21.1-3.5 18.6 7.5 26.6l9.5 6.9 1.7-6.1c2.2-7.9 4.3-19.7 4-22-.1-1 .3-1.5.8-1.2.6.3 1 .1 1-.5 0-.7-.7-.9-1.6-.6-1.1.4-2.9-.6-5.4-3-3.2-3.1-3.8-4.4-3.8-8-.1-5.1 1.3-5.9 2.2-1.2.9 4.4 5.3 8.8 8.8 8.8 1.7 0 2.8-.5 2.8-1.4 0-.7.7-1.9 1.6-2.7 1.1-.9 1.4-2.2.9-4.8-.4-2-.8-4.1-.9-4.8-.3-2.1-4-6.3-5.6-6.3-2.4 0-4.3-1.7-3.7-3.3.7-1.8 5.7-1.1 7.5 1.2zm88.1.7c-.6.8-1.9 1.4-2.9 1.4-2.1 0-4.5 2.6-6 6.4-1.2 3.3-.7 4.4 1.4 2.7 1-.8 1.6-.9 2.1-.1.8 1.3 4.2 1.3 5-.1.4-.6-.2-1.3-1.4-1.6-2.3-.6-2.7-1.8-1.1-2.8 1-.6 4.9 3.1 5 4.6 0 .8-4 2.2-6 2-1-.1-.7.6.9 1.9 1.7 1.4 2.1 2.4 1.4 3.1-1.2 1.2-5.3-.9-5.3-2.7 0-.7-.7-1.4-1.5-1.8-2-.7-1.9 1.5.3 5.3 1 1.9 2.5 3.1 3.8 3.1 3.3 0 7.3-3.7 8-7.6.6-3.1 2.3-5.6 2.5-3.7.9 6.7.6 7.5-3.4 11.2-2.2 2-4.6 3.5-5.3 3.5-.9-.1-1.1.8-.8 3 1.1 5.9 3.5 17.1 4.4 20.2.6 1.7 1 3.8 1 4.7 0 .9.4 1.7 1 1.7 1.2 0 17.2-11.3 18.6-13.2.7-.9.7-3-.2-6.8-.6-3-1.2-5.1-1.3-4.6 0 .5-.8.3-1.6-.4-1.7-1.4-2-4-.5-4 .6 0 1 .7 1 1.6 0 .8.4 1.3.9 1 1-.7.4-8.7-1.1-13.8-1.1-3.9-.3-9.7 1.2-8.2 1.5 1.6 6.1 37.5 5 38.9-.6.7-2.9 2.6-5.3 4.1-20.6 14.1-25 17.8-24.1 20.6.8 2.7-1.3 2.2-3.2-.7-1.3-2-1.9-2.3-3-1.4-2 1.7-1.6-.2.5-2.9 2.4-2.8 2.9-2.8 3.3 0 .3 2.2.3 2.2 2.2.2 1.8-1.7 1.8-1.9.3-2.2-2-.4-2.1-1.1-.3-3.5 1.4-1.8 1.5-1.8 2.4 0 2.1 3.7 2.5 0 .8-8-1.8-8.3-5-14.7-7.4-14.7-1 0-1-.3.2-1.5.8-.8 1.9-1.5 2.5-1.5 1.6 0 .7-5.8-1.2-8.1-1-1.1-1.7-2.5-1.7-3.3 0-.7-.8-2.4-1.8-3.7-1.1-1.3-2.2-3.6-2.5-5.1-.4-1.4-1-3.4-1.3-4.3-.6-1.4-.3-1.6 1.4-1 1.7.5 2.2.2 2.2-1.2 0-2.7 4.7-8.7 7.3-9.4 2.9-.8 5.1.9 3.6 2.7zm-119 .8c2 2.1 2.9 3.6 2.2 4-1 .7-3.7-1.6-7-5.7-2.6-3.3 1.3-1.9 4.8 1.7zm147.2-1.7c-.5 1-2 2.8-3.4 4.1-1.8 1.7-2.7 2-3.3 1.1-.4-.8.5-2.3 2.5-4.1 3.6-3.2 5.7-3.7 4.2-1.1zm-72.4 2.8c.7 2.1-.4 3.2-1.9 1.7-.7-.7-1.7-.8-3-.1-1.4.7-1.8.6-1.8-.5 0-2.7 5.7-3.6 6.7-1.1zm-53.2 3.4c-2 2-2.9.8-1.5-1.9 1-1.8 1.4-2 2.1-.9.5.9.3 1.9-.6 2.8zm100.8-1.7c.4 1.2.4 2.4.1 2.7-.8.9-3.7-2.7-3-3.8 1.1-1.7 2.3-1.3 2.9 1.1zm-63.9 1.3c-.4.8-.1 1.5.5 1.5 1.3 0 1.4 2.9.2 4.9-1.4 2.1-4.4-.5-3.2-2.7.5-.8.6-2.3.4-3.3-.4-1.3 0-1.9 1.1-1.9 1 0 1.3.6 1 1.5zm27.6 0c0 .8-.4 1.5-1 1.5-.5 0-1-.7-1-1.5s.5-1.5 1-1.5c.6 0 1 .7 1 1.5zm-58.7 1.1c.3.3.3 1.2 0 2-.4 1.1-.9 1.2-1.9.3-1.1-.9-1.4-.8-1.4.3 0 .8 1.6 1.8 3.7 2.4 4.2 1 5.1 2.9 2.9 5.9-1.9 2.6-4.2 1.3-7.3-4.3-2.1-3.7-2.1-4.2-.7-5.6 1.6-1.6 3.6-2.1 4.7-1zm41.4 1.5c-1.2.7-1.6 1.7-1.2 3 .4 1.3.2 1.9-.9 1.9-1.6 0-3.1-3.4-2.1-5 .3-.5 1.8-1 3.3-1 2.4.1 2.5.2.9 1.1zm8.8 1.9c0 3.2-2.1 3.7-2.7.6-.3-1.4-.3-2.8 0-3.1 1.2-1.1 2.7.3 2.7 2.5zm7.4-1.7c.8 1 .7 1.7-.1 2.5-2.6 2.6-6 .4-3.8-2.3 1.5-1.8 2.4-1.9 3.9-.2zm-36.3 1.1c.3.8 1.6 1.7 3 2 2.7.7 3.3 4 .8 5-.9.3-1.2.2-.9-.5.8-1.2-2.3-4.9-4.2-4.9-.7 0-1.3-.7-1.3-1.5 0-1.9 1.9-2 2.6-.1zm-39.1.6c.3.5.1 1-.4 1-.6 0-1.1-.5-1.1-1 0-.6.2-1 .4-1 .3 0 .8.4 1.1 1zm87.5-.1c0 1.4-1.8 2.3-3 1.6-.6-.4-.8-1.1-.5-1.6.8-1.2 3.5-1.2 3.5 0zm-6.3 4.5c-.8 1.9-3.7 2.1-3.7.3 0-.7.5-1.8 1.2-2.5 1.5-1.5 3.3.1 2.5 2.2zM94 85.6c0 1.9-7.8 18.2-9.1 19-.5.3-1.2-.2-1.5-1-.3-.9 1.4-5 4-9.5 2.5-4.4 4.6-8.5 4.6-9.1 0-.5.5-1 1-1 .6 0 1 .7 1 1.6zm63 4.6c1.8 3.5 4.1 7.5 5.1 9 1 1.4 1.9 3 1.9 3.5 0 1.2-4.1 3.6-4.8 2.8-.4-.3 0-1 .7-1.4 1-.7.7-1.8-1.4-5.1-4.9-7.8-7.3-15-5-15 .2 0 1.8 2.8 3.5 6.2zm-43.7-3.7c-.3.9-.2 1.5.3 1.4 2.1-.4 2.5.2 1.3 1.8-1.3 1.5-1.1 1.6 2.1 1 3.7-.8 5.1-2.2 4.3-4.4-.3-.7-.1-1.3.5-1.3 1.7 0 2.3 4.4.7 5.6-1.9 1.5-1.9 3.8.1 5.5 1.3 1 1.7 1 2.4-.1.4-.7.6-1.9.3-2.7-.7-1.9 2.6-4.2 6-4.3 3.2 0 3.4 1 .7 3.5-2.8 2.5-2.5 4.5.5 4.5 2.5 0 3.3-1.4 1.5-2.5-.6-.4-.8-1.1-.4-1.6.3-.5 1-.7 1.5-.4.5.4.9.1.9-.5 0-.7.8-.9 2-.5s2.8.1 3.8-.7c1.2-.9 1.2-.7-.2 1-1.1 1.2-2.5 2.1-3.2 1.8-.8-.3-1.2.4-1.1 2.2.2 3 1.9 2.8-15.3 2.2-4.1-.2-8.9 0-10.7.4-2.9.7-3.1.5-2.6-1.4.4-1.4-.2-3-1.8-4.6l-2.4-2.5 2.8 1c3.9 1.5 4 1.5 3.4-1.8-.6-3.1-.1-4.1 1.9-4.1.8 0 1.1.6.7 1.5zm13 .4c.3 1.4.1 1.8-.9 1.4-.8-.3-1.4-1.1-1.4-1.9 0-2.1 1.7-1.7 2.3.5zm-25.9.7c.3.8.2 1.2-.4.9-.6-.3-1-1-1-1.6 0-1.4.7-1.1 1.4.7zm35.1-.6c.3.5-.3 1-1.4 1-1.2 0-2.1-.5-2.1-1 0-.6.6-1 1.4-1 .8 0 1.8.4 2.1 1zm-75 1c-.3.5-1 1-1.6 1-.5 0-.9-.5-.9-1 0-.6.7-1 1.6-1 .8 0 1.2.4.9 1zm127.3 1.5c-.3.3-.9-.2-1.2-1.2-.6-1.4-.5-1.5.5-.6.7.7 1 1.5.7 1.8zM72.3 99.6c.4.7 1.4 1.1 2.2.8 1.2-.5 1.5.4 1.5 4.5 0 2.8-.4 5.1-1 5.1-.5 0-1 1.6-1 3.5 0 3.8-2.4 9.5-4 9.5-1.3 0-1.3-1.7 0-2.5 1.8-1.1 1.1-2.6-.7-1.7-2.1 1.1-3.8.6-7.6-2-3.2-2.3-6-7.2-5.5-9.6.3-1.2 1.2-.5 3.1 2.6 1.5 2.3 3.8 4.8 5.2 5.4 3.1 1.4 7.5.3 7.5-2 0-1 .5-2.3 1-2.8 1.5-1.5-2.2-9.6-5.6-12.3-2-1.5-3.6-2-5.5-1.6-1.9.4-2.8.1-3.2-.9-.7-1.8 2-3.6 4.2-2.8 1 .3 1.1-.2.6-1.9-.6-1.8.4-1.1 3.6 2.5 2.4 2.7 4.7 5.5 5.2 6.2zm110.2-8.5c-.6 1.9-.4 2.1 1.3 1.6 2.3-.5 4.8 1.6 3.8 3.2-.3.5-2.2.9-4.1.8-2.6-.1-4 .5-5 2.1-.9 1.1-2.3 2.9-3.3 3.8-2.4 2.4-2.2 10.2.3 12.1 4 2.8 7.1 1.3 13.4-6.7 3.1-3.9 2.7.1-.5 4.9-3 4.7-7.9 7.4-10.6 6-1.9-1-2.6.5-.8 1.6 1.1.7.4 2.5-.9 2.5-1 0-3.1-4.6-3.1-7 0-1-.5-3.1-1.1-4.7-1.6-4.2-1.8-11.3-.2-11.3.7 0 1.3.6 1.4 1.2 0 .8.3.7.6-.2.4-.8 2.3-3.5 4.5-5.9 2.1-2.4 3.8-4.8 3.8-5.2 0-.5.3-.9.6-.9s.2 1-.1 2.1zM59 99.4c0 .7-.7 1.9-1.5 2.6-1.6 1.3-2 .3-.9-2.4.8-2 2.4-2.1 2.4-.2zm34 3c-.1 1.5-3.9 6-4.6 5.3-.3-.3-.2-1.6.2-2.9.9-2.6 1.1-3.4 1.3-4.9.1-1.5 3.1.9 3.1 2.5zm92.5-.9c0 2.9-2 2.8-2.1 0-.1-1.6.3-2.4 1-2.2.6.2 1.1 1.2 1.1 2.2zm-28.7-.3c1.4 1.4 1.6 5.8.2 5.8-1.2 0-3-3.3-3-5.4 0-1.9 1.1-2.1 2.8-.4zm-90 .6c1.3-1.1 1.5-1.1.9.4-.4 1.1-.2 1.7.6 1.5.7-.1 1.2.5 1.2 1.3 0 .9-.7 1.4-1.7 1.2-2.2-.4-2.3.7-.2 3.7 1.2 1.6 1.3 2.6.6 3.3-1.5 1.5-4.3-.8-3.5-2.8.3-.8 0-2.1-.7-2.9-.9-1.1-.9-1.5-.1-1.5.7 0 1-.4.6-1-.3-.5-1.2-.7-1.9-.4-1.6.6-3-1.1-2.1-2.6.4-.7 1.3-.6 2.6.1 1.5.8 2.4.7 3.7-.3zm82.8 7.7c.1 4.4-.3 8.5-.7 9.1-.5.7-2.4.8-4.6.5-2.9-.5-3.8-1.1-3.8-2.6 0-1.8-6.2-11.5-7.3-11.5-.2 0-1.5.9-2.9 2-2.3 1.8-2.8 1.9-4.2.6-1.4-1.3-1.6-1.1-1.7 2-.1 4.1.5 4.2 4.4.9 3-2.5 6.2-3.3 6.2-1.5 0 .5-1.1 1.7-2.5 2.6-1.8 1.2-2.4 2.2-1.9 3.6.5 1.7.2 1.9-2.6 1.4-2.6-.4-3.3-.1-3.7 1.5-.7 2.4-2.3 2.5-3 0-.3-1.3-1.2-1.7-3.4-1.5-2.4.3-2.9 0-2.9-1.9 0-1.2-1.2-3-2.6-4-2.4-1.8-2.6-1.8-4.5-.1-1 .9-1.9 2.3-1.9 3.1 0 .7-.5 1.3-1.1 1.3-.6 0-.8.9-.4 2 .6 1.8.2 2-3.9 2h-4.5l-.3-8.6c-.2-4.7-.1-8.8.1-9 .3-.2 12.4-.3 27-.2l26.6.3.1 8zm31.5-5.4c1.2 1.4 2.4 1.9 3.8 1.4 1.8-.5 3.9 1 2.8 2.1-1.2 1.3-5.7 1.1-5.7-.2 0-1.7-1.2-1.8-2.8-.2-1.9 1.9-3.7-.4-2.3-3.1 1.4-2.6 1.9-2.6 4.2 0zm-110.6 5c1.1 1.7-.1 2.1-1.5.4-.8-.9-.8-1.5-.2-1.5.6 0 1.4.5 1.7 1.1zm111.3 1.1c.8.8.9 1.5.1 2.5-1.6 1.8-4.3 1.7-3.5-.2.3-.9 0-1.5-1-1.5-.8 0-1.2-.5-.9-1 .8-1.4 3.8-1.3 5.3.2zm-21.3.9c1.1 1.7-.1 2.1-1.5.4-.8-.9-.8-1.5-.2-1.5.6 0 1.4.5 1.7 1.1zm-3.8 3.6c1 1.6 2.2 3.1 2.8 3.5.6.5.5 1.2-.3 2-1 1-1.7.7-3.7-1.7-2.5-3.1-3.3-6.5-1.5-6.5.5 0 1.7 1.2 2.7 2.7zm-64.7-.3c0 1.5-3.7 6.6-4.9 6.6-1.2 0-.7-4.6.8-6.3 1.6-2 4.1-2.2 4.1-.3zm-8.2 1.4c.2.7-.6 1.2-1.7 1.2-2.1 0-2.7-1.1-1.4-2.4.9-.9 2.6-.2 3.1 1.2zm2.1 10.6v2.1l-.9-2.1c-.5-1.2-1.3-2.5-1.9-2.9-.6-.3-1.1-1.4-1.1-2.3.1-1.4.4-1.3 2 .7 1.1 1.3 2 3.3 1.9 4.5zm38.1-4.8c1.7-.3 3-.1 3 .4 0 .6.9 1 2 1s2-.5 2-1c0-.6.9-1 2-1s2 .4 2 1c0 .5-.9 1-2 1-1 0-2.4.8-3 1.7-.9 1.7-1.1 1.7-2 .1-.8-1.3-2.1-1.6-5.8-1.2-2.6.2-4.8.9-5 1.4-.5 1.5-2.2 1.2-2.2-.4 0-1-1.9-1.4-7.9-1.4-7.1-.1-8 .1-8.4 1.9-.5 1.8-.1 2 3.8 1.8 2.5-.2 4.7 0 5.1.4.4.4-1.3.7-3.9.7-2.5 0-4.9.4-5.2 1-.3.5 0 1 .9 1 .8 0 1.7.6 2 1.2.5 1 .7 1 1.2 0 .3-.6 1.2-1.2 1.9-1.2s1.6.6 1.9 1.2c.5 1 .7 1 1.2 0 .3-.6 1.5-1.2 2.6-1.2 2 0 2 .1.4 1.9-1.3 1.5-1.6 2.8-1 5.7.7 4.1.7 4.4-.1 4.4-.3-.1-1.3.6-2.1 1.5-1.5 1.4-1.7 1.4-2.8 0-1.3-1.8-4.1-1.2-5 1.2-.9 2.1.3 3.1 1.4 1.3.8-1.3 1.3-1.3 3.1-.2s2.4 1.1 4-.4c1.7-1.5 1.9-1.5 2.5 0 .8 2.1 3 2.1 4.3-.2 1-1.6 1.2-1.6 2.5 0 .7 1 1.9 1.8 2.6 1.8 1 0 1.2-2.3.8-10-.4-7.6-.2-10.3.8-11.1 2.2-1.8 3 1.9 2.4 11-.3 4.5-.3 8.6-.2 9.1.6 1.6 3.2 1.2 3.2-.5 0-.8.7-1.5 1.5-1.5s1.5.7 1.5 1.5.7 1.5 1.5 1.5 1.5-.7 1.5-1.5.4-1.5.9-1.5 1.1.7 1.5 1.5c.3.8 1.2 1.5 2.1 1.5.8 0 1.5-.7 1.5-1.5s.5-1.5 1-1.5c.6 0 1.3.7 1.6 1.5.8 2 2.4 1.9 4-.2 2-2.9 2.9-.6 3 8.2.1 7.2-.1 8.7-1.9 10.6-1.4 1.5-1.7 2.4-.9 2.7 1.4.4 1.6 3.2.2 3.2-.5 0-1-.6-1-1.4 0-2-2.5-2.5-9.5-2.1-4.9.3-5.7.1-4.3-.9 1.5-1.1 1.5-1.3.1-2.2-.9-.5-1.7-2.1-1.8-3.4-.1-1.3-.8-2.6-1.5-2.8-.9-.3-1.1.2-.7 1.7.3 1.1.2 2.3-.3 2.6-.4.2-1-.9-1.4-2.5-.3-1.7-1.2-3-2-3-1.6 0-3.1-1.8-2.3-2.7.3-.3 1.6.4 2.8 1.6 1.5 1.4 2.6 1.7 3.4 1.1 1.5-1.3 5.5-.1 5.5 1.6 0 .8-.7 1.4-1.5 1.4s-1.5.4-1.5 1c0 .5.6 1 1.3 1 .8 0 2.2.9 3.2 2s2.5 2 3.4 2c1.5-.1 1.5-.2 0-1.3-2.1-1.6-3.1-7.7-1.2-7.7.7 0 1.3 1 1.3 2.2.1 2.5 3.2 6.8 4.9 6.8 1.5 0 1.4-.9-.4-2.6-2-2.1-2-6.4.1-6.4 1.2 0 1.5.6 1 2.5-.5 1.8-.1 2.7 1.4 3.5 1.9 1 2 .8 2-4.5 0-3-.4-5.5-1-5.5-.5 0-1 .8-1 1.7-.1 1.7-.1 1.7-1.4 0-1.3-1.7-5.2-2.5-4.1-.8.3.5.1 1.2-.5 1.6-.6.3-1.3-.1-1.6-.9-.6-1.6-4.7-2.4-4.1-.9.2.8-.6 1.3-2.4 1.3-.5 0-.7-.5-.4-1 .3-.6-.3-1-1.4-1-1 0-2.2.6-2.5 1.2-.5 1-.7 1-1.2 0-.3-.6-2.1-1.2-3.9-1.2-1.8 0-3.6.6-3.9 1.2-.5 1-.7 1-1.2 0-.8-1.6-2.2-1.5-4.1.3-.8.8-2 1.2-2.6.8-.7-.4-.4-.9.9-1.4 1.6-.6 1.5-.8-.8-.8-1.8-.1-2.8.4-2.8 1.4 0 .9-.6 1.2-1.5.9-.8-.4-1.2-1-.9-1.5.3-.5-.4-.9-1.5-.9-1.2 0-2.1.7-2.1 1.5s-.9 1.5-1.9 1.5c-1.1 0-2.1.4-2.3 1-.2.5-.4-1.9-.6-5.5-.2-4.8.1-6.5 1.1-6.5 1.5 0 3.9-8.2 3.1-10.5-.8-2.1-2.6-1.9-2.3.2.3 3.2-.1 5.7-.7 5-.4-.4-.7-4.3-.7-8.8l.1-8.2 8.3-.2c4.8-.1 9 .3 9.8.9 1 .8 1.7.7 2.5-.6.7-1.2 1.4-1.4 2.3-.6.7.6 2.7.8 4.3.4zm24.4 9.4c.1 5-.2 9.6-.6 10.3-.7 1-1.3-9.1-1-16.1.1-2-.3-2.2-5.4-2.2-3 0-5.3-.3-5.1-.8.3-.4 3.1-.6 6.2-.5l5.8.1.1 9.2zM90 124.4c0 .3-.4.8-1 1.1-.5.3-1 .1-1-.4 0-.6.5-1.1 1-1.1.6 0 1 .2 1 .4zm66.6.8c1.2 1.7 1.1 3.8-.2 6.2-.9 1.5-1.5 1.6-3.3.7-2.1-1.2-2.9-4.1-1.1-4.1.6 0 1-.9 1-2 0-2.2 2.3-2.7 3.6-.8zm-62.9 5.9l.1 4.4-1.9-2.4c-1-1.2-1.6-2.7-1.3-3.2.3-.5-.2-.6-1-.3-2.1.8-2-.6.2-2.2 2.7-2.1 3.7-1.1 3.9 3.7zm37.8-2.3c-.3.8.2 2.6 1.1 3.9 1.2 1.9 1.3 2.8.4 3.7-.8.8-1.6.5-3-1.4-1.1-1.4-2-3.3-2-4.2 0-.9-.4-2-1-2.3-2-1.2-.9-2.1 2.1-1.7 2.2.3 2.9.9 2.4 2zm-13.7.9c-1.8 4.2-3.9 7.3-4.9 7.3-1.4 0-1-2.8.7-5.5 1-1.5 1.2-2.5.5-2.5-.6 0-1.1-.5-1.1-1 0-.6 1.3-1 3-1 2.9 0 2.9.1 1.8 2.7zm27.2-2.3c0 1.1-1.9 1.5-2.5.6-.3-.5.1-1 .9-1 .9 0 1.6.2 1.6.4zm-6 3.6c.7-1.2 1.1-1.2 2.5 0s1.8 1.2 2.7-.1c.7-1 .8-.5.4 1.8-.3 1.7-.1 4.5.4 6.3 1.2 4.2-.6 6.6-3.3 4.2-1.6-1.4-1.9-1.4-3.2.4-2.2 2.9-3.4.2-3.2-7.2.2-5.1.4-6 1.5-5.1 1 .8 1.6.7 2.2-.3zm-7.7 8c1 1.2 1.7 2.3 1.5 2.5-.5.5-3 .8-5.3.6-1.5-.1-1.7-.3-.6-1s1.1-1.5.2-4.1c-1.8-5.2-1.9-5.3 4.2 2zm-43.5-.5c.6.5-3.3 6.4-5.1 7.5-2.7 1.7-3 .8-1-3.6.9-2.1 1.6-4.3 1.5-4.7-.2-.7 3.6 0 4.6.8zm29.2.5c0 1.1.5 2 1 2 .6 0 1 .4 1 .9s-.9.7-2 .4c-2.1-.5-3-5.3-1-5.3.6 0 1 .9 1 2zm54 1.5c-2.7 2.9-3.7 2.7-2-.4.6-1.2 1.8-2.1 2.7-2.1 1.3 0 1.2.5-.7 2.5zm-73.5.5c.3.5.1 1-.4 1-.6 0-1.1-.5-1.1-1 0-.6.2-1 .4-1 .3 0 .8.4 1.1 1zm-3.5 1c0 .5-.9 1.9-2 3-2 2-2.7 3.6-1.1 2.6 1.2-.8 3.4 2.1 2.6 3.4-.5.7-1.8.4-4.1-.9-1.9-1.1-4.1-1.8-5-1.4-1.5.5-1.5.3.1-2 1.9-3 3-3.4 3.9-1.5.3.7.3.3 0-.9-.5-2.1-.3-2.2 4.9-3.2.4 0 .7.3.7.9zm62.3.9c1.5.8 2.7 2 2.7 2.8 0 .7.7 1.3 1.5 1.3 1.2 0 1.4-.7.9-2.8-.6-2.6-.6-2.6.9-.7.9 1.1 1.7 2.8 1.7 3.7 0 1.4-.6 1.6-2.7 1.2-5-1-6.6-.9-7 .3-.3.7.2 1.3 1.1 1.3 2.6 0 1.8 1.5-.8 1.8-2.8.2-4.2-2.4-2.5-4.5.9-1 .9-1.7.1-2.5-1-1-.5-4.2.7-3.6.3.2 1.8 1 3.4 1.7zM80 149.7c1.6 1.9 2.3 7.3 1.1 7.3-.4 0-1.8-1.1-3.1-2.5s-2.8-2.5-3.4-2.4c-.6 0-.5.3.2.6 1.6.6 1.5 2.3-.2 2.3-1.2 0-2.5-2.8-2.6-5.4 0-.4 1.1-.5 2.5-.2 1.4.4 2.5.2 2.5-.4 0-1.5 1.4-1.2 3 .7zm91.3.8c-.3.8-1.1 1.5-1.9 1.5-.8 0-1.4.7-1.4 1.6 0 1.1.6 1.4 2 .9 1.1-.4 2-.2 2 .4 0 .6-.7 1.1-1.5 1.1-1.2 0-1.3.4-.5 1.9 1.4 2.8 1.4 2.9-2.5 2.9-1.9 0-3.5-.4-3.5-.9s.6-.9 1.4-.9c1.4 0 3-2.9 2.1-3.8-.3-.3-1.8.7-3.4 2.2-1.6 1.5-3.1 2.4-3.4 1.9-.9-1.5 4.4-9.3 6.3-9.3 1.1 0 2.2-.5 2.5-1 .9-1.5 2.5-.2 1.8 1.5zm-93.4 9.7c-4.2 3.5-7.1 1.6-3.8-2.5 1.9-2.5 2.1-2.5 4-.9 2 1.7 2 1.7-.2 3.4zm40.1-1.6c-.8 1.9-2 3.2-2.6 3-.5-.2-2.1.5-3.5 1.5l-2.4 2 2.5-.2c4.4-.2 5.7.1 3.5 1-1.6.7-9.2.8-12.7.2-1.4-.2-.8-2.1 1.1-4 1.3-1.3 1.8-2.7 1.4-4.2-.4-1.6-.2-2 .8-1.7.8.3 1.3 1.6 1.1 3.1-.1 1.4.3 2.9.9 3.3 1.4.8 2.9-1.3 2.9-4.3 0-2.2 1.4-2.9 6-2.9 2.6-.1 2.6 0 1 3.2zm-16 .5c0 3.7-2.1 6.1-4.1 4.8-1.2-.8-1.2-1 .1-1.9.8-.5 1.6-1.5 1.6-2.2.1-.7.2-1.9.3-2.6.2-2.6 2.1-1 2.1 1.9zm21.7 1.9c.1 2.4.1 2.4-.4.2-.3-1.5-1-2.2-1.9-1.8-.8.3-1.4.1-1.4-.5 0-2.3 3.5-.3 3.7 2.1zM85 160c0 .5-.4 1-.9 1-.6 0-1.3-.5-1.6-1-.3-.6.1-1 .9-1 .9 0 1.6.4 1.6 1zm3.8 1.6c-1 2.2-.9 2.7.5 3.5.9.6 1.7 1.4 1.7 2 0 1.3-4.2-.9-5.4-2.8-.6-1.2-1.3-1-3.7 1.3-1.6 1.5-2.9 3.2-2.9 3.7 0 .4.7.1 1.6-.7 2.8-2.9 3.7-1.7 1.2 1.6-3.1 4-5.8 4.8-5.8 1.8 0-1.2.5-3 1-4.1.7-1.3.7-1.9 0-1.9-.5 0-1 .7-1 1.5s-.7 1.5-1.5 1.5-1.5-.9-1.5-2c0-2.5 4.7-5 9.4-5 1.9 0 4.1-.7 4.8-1.5 2.1-2.3 2.9-1.7 1.6 1.1zm63.2.8c0 .7-.8 2-1.7 2.7-1.5 1.2-1.6 1.2-1-.4.4-1 .7-2.3.7-2.8s.5-.9 1-.9c.6 0 1 .6 1 1.4zm-30.4 5c.8.3 1.4.1 1.4-.5s.5-.7 1-.4c.8.5.7 1.1-.1 2.1-1.8 2.2-5.9-1.9-5-4.9.5-2 .6-2 .9.5.2 1.4 1 2.9 1.8 3.2zm35.4-3.9c.9 1.1.9 1.5.1 1.5-.6 0-1.9 1.3-2.9 2.9-1.2 2-2.2 2.7-3.1 2.2-1.9-1.2-.4-5.1 1.9-5.1 1.3 0 1.7-.5 1.4-1.5-.4-.8-.2-1.5.4-1.5.5 0 1.5.7 2.2 1.5zm11.7 1.7c2.6 2.4 3.1 5 .8 4.2-.8-.4-1.5-1.2-1.5-1.9s-.7-1.5-1.5-1.9c-1.5-.5-2.1-2.6-.8-2.6.4 0 1.7 1 3 2.2zm-70.9 3.2c1.7 3.4 1.1 4.2-1.7 2.4-1.2-.7-2.1-2.3-2.1-3.6 0-3.1 2.1-2.4 3.8 1.2zm30.7-2.4c-.3.5-1 1-1.6 1-.5 0-.9-.5-.9-1 0-.6.7-1 1.6-1 .8 0 1.2.4.9 1zm37.4 1.6c1.2 1.5 2.1 3.3 2.1 4 0 2.2-4.8 1.7-6-.7-1.5-2.7-.7-3.5 1.4-1.4.9.9 1.6 1.2 1.6.6 0-1.5-3.2-2.9-5-2.3-1.3.5-1.3.3-.1-1.1 1.9-2.4 3.6-2.1 6 .9zm-93.3 2.8c2 2.1 1.7 2.8-.6 1.6-1.2-.6-3-.8-4.2-.4-1.5.4-1.8.3-1.3-.6.6-.9.3-.9-1.2-.1-1.1.6-2.3.7-2.7.3-.4-.3-9.7-.7-20.7-.7-16.4 0-19.9.2-19.9 1.4 0 1.1-.4 1.1-1.8-.2-2-1.8-3.7-2.3-2.8-.8 1.1 1.8-2 1.8-3.8 0-1.9-1.9-1.2-1.9 27.8-1.9 24.4 0 30 .3 31.2 1.4zm32.9-.4c-.3.5-1.2 1-1.8 1-.7 0-.6-.4.3-1 1.9-1.2 2.3-1.2 1.5 0zm15.5 2c0 1.5-.5 1.2-2.6-1.1-1.9-2.2-1.9-2.2.4-1 1.2.6 2.2 1.6 2.2 2.1zm23.2-1.2c.7.7.9 1.5.5 1.9-.4.4-1.3.1-1.9-.5-.7-.7-2.7-1.2-4.6-1.2-1.8 0-3.1-.4-2.8-.9.8-1.2 7.4-.7 8.8.7zm87.4-1.1c-.4.5-1.2.9-1.7.9-.5.1-1.3.2-1.8.3-.5 0-1.2.9-1.4 1.8-.4 1.4-.5 1.2-.6-.5-.1-1.7-.7-2.2-2.7-2.2-1.5 0-3.3.8-4.1 1.7-1.4 1.7-1.4 1.7-.9 0 .5-1.7-.5-1.8-21.2-1.2-11.9.3-22.5.8-23.4 1.1-1.2.4-1.8 0-1.8-1 0-1.4 3.4-1.6 30.2-1.6 16.6 0 29.8.3 29.4.7zm-140.2 1.8c-.4.8-.8 1.5-1 1.5-.2 0-.4-.7-.4-1.5s.4-1.5 1-1.5c.5 0 .7.7.4 1.5zm35 0c-.4.8-1.1 1.5-1.6 1.5-.6 0-.5-.6.2-1.5.7-.8 1.4-1.5 1.6-1.5.2 0 .1.7-.2 1.5zm30.2 0c-2.5 1.9-3.7 1.9-3 0 .4-.8 1.6-1.5 2.8-1.5 2.1.1 2.1.1.2 1.5zm-4.1 3.3c-.2.3-1.1-.1-1.9-.7-.8-.7-2.1-.9-2.8-.5-.9.6-.9.3.1-.9 1.3-1.6 1.5-1.6 3.2-.1 1.1 1 1.7 1.9 1.4 2.2zm8.5-2.8c0 .5-.5 1-1 1-.6 0-.2 1 1 2.2 1.1 1.2 2 2.4 2 2.7 0 .9-2 3.7-2 2.8 0-.4.1-.9.3-1.1.1-.2-.6-1.3-1.6-2.4-1.2-1.3-1.6-2.8-1.2-4.1.6-2.1 2.5-2.9 2.5-1.1zm61.1 1.3c-1 .9-1.1.8-.5-.6.3-1 .9-1.5 1.2-1.2.3.3 0 1.1-.7 1.8zm-133.8 4.4c1 1.2 2.6 1.9 3.3 1.6 2.6-1 1.4 2.2-1.3 3.4-3.9 1.8-4.6 1.6-3.9-1.1.6-2.3.4-2.4-3.4-1.9-4.5.6-5.2-.7-1.7-3.2 1.5-1.2 1.8-1.9.9-2.2-.6-.3-1-.9-.7-1.3.6-1 3.5 1 6.8 4.7zm8.1-4.1c.8 2.1-.1 3.4-2.5 3.4-1.2 0-1.9-.7-1.9-1.8 0-3.4 3.3-4.5 4.4-1.6zm73.6.9c-.7.9-1.5 1.3-1.7 1.1-.7-.7.7-2.6 1.9-2.6.6 0 .6.6-.2 1.5zm-95.5.5c.3.6-.1.7-.9.4-1.8-.7-2.1-1.4-.7-1.4.6 0 1.3.4 1.6 1zm89.5 0c0 .5.6 1 1.4 1 1.2 0 3.1 2.9 2.4 3.5-.2.1-1.6-1-3.3-2.6-1.6-1.6-2.4-2.9-1.7-2.9.6 0 1.2.4 1.2 1zm-147 1c0 .5-.5 1-1.1 1-.5 0-.7-.5-.4-1 .3-.6.8-1 1.1-1 .2 0 .4.4.4 1zm60.9 1.7c-.7 1-1.4 1.9-1.5 2.1-.1.2-.4-.4-.8-1.3-.3-.9-.2-1.3.4-1 .6.3 1 .1 1-.4 0-.6.5-1.1 1.1-1.1.8 0 .7.6-.2 1.7zm37.1-.7c.8.5 1.1 1.2.7 1.6-.4.4-1.5 0-2.4-.9-1.8-1.8-.8-2.3 1.7-.7zm44 1c0 .5-.7 1-1.6 1-1.1 0-1.4.6-.9 2 .4 1.2.1 2.7-.5 3.5-.6.8-.9 1.9-.5 2.5.4.6-.3.6-1.9-.2-3.1-1.3-3.5-2.8-.6-2.1 1.1.3 2 .1 2-.5s-.9-1.4-2-1.7c-2.7-.9-2.5-2.2.5-2.9 1.4-.4 2.5-1.1 2.5-1.6 0-.6.7-1 1.5-1s1.5.4 1.5 1zm-53.9 1.8c-1.7 3.1-4.1 4.8-5 3.3-.6-.9-1.1-.8-2.1.4-1 1.2-1 1.5.4 1.5s1.3.5-.7 3.7c-4.2 6.9-4.8 9.1-3.1 10.7.8.8 2 1.3 2.7 1 .7-.3 3.2-4.8 5.7-10 2.4-5.3 4.7-9.7 5-9.9.3-.2 1.1.8 1.7 2.2 1 2 .9 2.2-.1 1.4-1-.8-1.7-.7-2.6.4-1 1.2-1 1.6.1 1.9 4 1.3 4.1 1.4 1.3 1.5-2.4.1-3.4.7-3.9 2.3-.4 1.3-.8 2.5-.9 2.8-.1.3-1 2.2-2 4.2-2.1 4.3-4.8 5.6-8.1 3.8-2-1.1-2.2-1.7-1.4-4.2.4-1.7 1.2-3.5 1.8-4.1.5-.7 1.1-2.1 1.3-3.2.1-1.1.7-2.3 1.2-2.7.6-.4.5-1.3-.3-2.2-1.3-1.6-.6-4 .9-3.1.5.3 1.3-.2 1.8-1.1.6-1 1.6-1.5 2.5-1.1.9.3 1.9.2 2.2-.3 1.2-1.9 2.6-1.1 1.6.8zm34.9.2c0 .5-1.1 1.2-2.5 1.6-2.5.6-3 3.2-.5 2.6.7-.1 1.8.2 2.6.8 1 .9 1.3.6 1.1-1.7-.2-2.6 0-2.8 3.6-2.8 4.3 0 6 1.3 4.7 3.5-.7 1.1-1.1 1.1-2.4.1-1.3-1.1-1.8-1-3.2.4-1.5 1.5-1.4 2.1 2.1 8.7 2.1 4 3.3 7.4 2.8 7.9s-1.7-1.3-2.8-4.3c-1-2.8-2.4-5.9-3.1-6.7-.8-.9-2-2.5-2.8-3.6-1.1-1.5-1.7-1.7-2.8-.8-1.1.9-1.6.8-2.6-.8-1.1-1.7-.9-2.3 1.4-4.4 2.5-2.3 4.4-2.5 4.4-.5zm-118-.6c0 .2-.7.6-1.5 1-.8.3-1.5.1-1.5-.4 0-.6.7-1 1.5-1s1.5.2 1.5.4zm143.4 1.1c-.4.9 1.2 3.3 3.9 6.1 3 3.1 4.3 5.2 3.9 6.3-1.6 4.5-5.6 4-11.4-1.4-4.3-3.9-6-6.5-4.1-6.5.8 0 8.3 8.3 8.3 9.2 0 1.6 4.8.7 5.5-1 .5-1.2-.6-2.9-4.3-6.2-4.5-4.1-4.7-4.6-3.3-6.3 1.9-2.1 2.2-2.1 1.5-.2zm8.1 2.3c-.3.3-1.1 0-1.8-.7-.9-1-.8-1.1.6-.5 1 .3 1.5.9 1.2 1.2zm51-.8c.3.5.1 1-.4 1-.6 0-1.1-.5-1.1-1 0-.6.2-1 .4-1 .3 0 .8.4 1.1 1zm-141.1 1.2c-.5.7-2.5 2.8-4.6 4.7-2.1 1.9-3.6 4.1-3.4 4.8.3.7.1 1.3-.4 1.3-2.1 0-.9-3.7 2-6.5 1.7-1.6 2.8-3.5 2.6-4.2-.4-.9.3-1.3 2-1.3 1.8 0 2.3.4 1.8 1.2zm36.2 8.8c-.1 5.5-.6 10.3-.9 10.7-.8.8-.9.1-.7-10 .1-4.2-.1-7.7-.5-7.7-.3 0-1.4.5-2.5 1.2-1 .7-2.2.9-2.6.6-1-1.1.6-2.8 2.6-2.8 1 0 2.2-.5 2.5-1 1.7-2.8 2.4 0 2.1 9zm8.2-7.5c1.2 1.4 3.1 2.5 4.1 2.5 1.1 0 2.2.4 2.5.9.4.5-1.2.7-3.5.5l-4.1-.4.5 4.5c.9 6.7-1.5 12.4-5 12.5-2.1 0-1.5-1.4 1-2.5 2-.9 2.2-1.7 2.1-8.3 0-4 .4-7.2.9-7.2.6 0 .3-.8-.6-1.8-1-1-1.7-2.2-1.7-2.5 0-1.4 1.7-.6 3.8 1.8zm-51.8-.6c0 .5-.7 1.1-1.4 1.4-1 .4-1.3.1-.9-.9.6-1.5 2.3-1.9 2.3-.5zm-52.1 4.5c-.2.2-1.3-.8-2.3-2.2l-1.9-2.7 2.4 2.2c1.2 1.2 2.1 2.4 1.8 2.7zM94 185c0 .5-.8 1-1.8 1s-4 2.2-6.7 5c-4.9 5-10.9 8.3-9.8 5.4.3-.8 1.3-1.4 2.3-1.4 1 0 3.3-1.7 5.1-3.8 5-5.7 10.9-9.1 10.9-6.2zm59.6 8.5c2.4 4.8 2.1 6.9-1.1 8.3-3.1 1.4-3.3 0-.3-2l2.1-1.4-3.1-5.6c-1.7-3.1-2.8-5.9-2.5-6.2.7-.7 2.2 1.4 4.9 6.9zM89 195c0 .5-.2 1-.4 1-.3 0-.8-.5-1.1-1-.3-.6-.1-1 .4-1 .6 0 1.1.4 1.1 1zm-13.7 7.8c1.6 1.8 1.5 1.8-1.8 1.8-1.9-.1-3.5-.5-3.5-1s-.8-.2-1.7.5c-1.6 1.3-1.7 1.2-.5-.3.8-.9 2.3-1.9 3.5-2.1 1.2-.2 2.2-.5 2.3-.6 0 0 .8.7 1.7 1.7zm-38.8.2c.3.5.1 1-.4 1-.6 0-1.1-.5-1.1-1 0-.6.2-1 .4-1 .3 0 .8.4 1.1 1zm46 .2c.5-.4.5-.1.1.6-.6 1-1.1 1-2.2.1-.8-.6-1.4-1.4-1.4-1.6 0-.3.6 0 1.3.6.8.6 1.8.7 2.2.3zm92.5.3c0 .1-1.2.2-2.6.2-1.7 0-2.2-.2-1.3-.7 1-.7 3.9-.3 3.9.5zm-12.8 2.5c3.7 0 6.8.3 6.8.8 0 .7-8.1.7-16.5.1-2.5-.1-2.6-.3-.7-.6 1.3-.3 2-.9 1.6-1.6-.5-.8-.2-.8.7 0 .8.8 4 1.3 8.1 1.3zm-67.3 1c-.6.5-1.8.6-2.6.3-.7-.3-1.3 0-1.3.6s.5 1.1 1.1 1.1c.5 0 .7.5.4 1-.4.7-1.4.3-2.6-1.1-1-1.2-2.4-1.9-3.1-1.7-.7.3-2.2.1-3.3-.4-1.4-.6-.7-.7 2.5-.5 2.5.2 5.4.1 6.5-.3 2.4-.9 4.3-.1 2.4 1zm24.4-1c.7 0 .7.4-.2.9-1.6 1-4.1.4-4.1-1.1 0-.6.7-.7 1.6-.4.9.3 2.1.6 2.7.6zm14.5.4c1.4.1 2.7.7 2.8 1.4.1.7 0 .8-.3.2-.6-1.2-3.3-1.3-3.3-.1 0 .5.7 1.1 1.5 1.5.9.3 1.5 1.8 1.5 3.5 0 2.1-.6 3-2.2 3.4-3 .8-4.1-.1-3.5-3.2.7-3.3-1.3-6.1-4.4-6.2-2.1-.1-2-.2.6-.8 1.7-.4 3.4-.5 3.9-.3.5.3 2 .5 3.4.6zm14.7-.4c.3.5.1 1-.4 1-.6 0-1.1-.5-1.1-1 0-.6.2-1 .4-1 .3 0 .8.4 1.1 1zm-78 11.6c.7.8 2 1.4 2.7 1.5.9 0 1 .2.1.5-.7.3-2.1 0-3.2-.6-1.8-.9-2.1-1.9-1.9-7.3l.2-6.2.3 5.4c.2 2.9 1 6 1.8 6.7zm4.1-10.1c-.3.9 0 1.5.9 1.5 1.5 0 4.5 3.7 4.5 5.7 0 2.1-2.1 1.5-2.7-.7-.3-1.1-1.2-2-2-2-1 0-1.2.6-.8 2.1.6 1.6.3 2-1.1 1.7-1.3-.2-1.8-1.4-1.9-5.1-.2-4.1 0-4.7 1.7-4.7 1.4 0 1.8.5 1.4 1.5zm5.4-.6c0 1.2-2 2.5-2.7 1.8-.7-.7.6-2.7 1.8-2.7.5 0 .9.4.9.9zm21.5-.2c-1.1.3-2.3 1-2.7 1.6-.4.6-1 .8-1.5.4-1-1.1 1.7-2.7 4.2-2.6l2 .1-2 .5zm12.5.9c0 1.2-.3 1.4-1.2.6-.7-.5-3-.8-5-.7-2.1.2-3.8-.1-3.8-.6s2.3-.9 5-.9c3.9 0 5 .3 5 1.6zm26.7-1c-.3.3-1.2.4-1.9.1-.8-.3-.5-.6.6-.6 1.1-.1 1.7.2 1.3.5zm34.3.9c-1 1.2-1.6 1.3-2.6.4-2-1.6-1.8-1.9 1.2-1.9 2.2 0 2.5.2 1.4 1.5zm5.5 5.1c-.3 3.7-1.6 6.3-3.5 6.9-2.3.7-4-.1-3.9-1.8 0-.9.2-.9.6 0 .8 2 2.8 1.5 4.2-1 1.4-2.6 1.6-5.2.6-8.7l-.7-2.5 1.5 2.6c.7 1.4 1.3 3.4 1.2 4.5zM123 208c0 .5-.4 1-1 1-.5 0-1-.5-1-1 0-.6.5-1 1-1 .6 0 1 .4 1 1zm26.7 1c1.3 0 2.3.5 2.3 1.1 0 .6-.7.9-1.5.5-1.1-.4-1.5.2-1.5 2.2 0 2.1.2 2.4 1 1.2s1-1.1 1 .7c0 2.7-1.2 2.9-3.4.8-1.7-1.7-3.6-2-3.6-.5 0 .5-.5 1-1 1-.6 0-.8-1-.4-2.4.3-1.3.1-2.7-.5-3-.7-.5-1.1.7-1.1 3.3 0 3-.4 4.1-1.5 4.1s-1.5-1.2-1.5-4.5c0-4.2.2-4.5 2.6-4.5 1.4 0 3.3.7 4.2 1.6 1.3 1.3 1.7 1.4 2.1.3.2-.7-.1-1.5-.7-1.7-.7-.2-1.2-.9-1.2-1.5 0-.8.4-.7 1.2.1.7.7 2.2 1.2 3.5 1.2zM85 213.5c0 3.3-.4 4.5-1.5 4.5s-1.5-1.2-1.5-4.5.4-4.5 1.5-4.5 1.5 1.2 1.5 4.5zm4-2.4c.9 1.5.8 2.4-.1 3.5-1 1.2-.8 1.7.7 2.9 2.4 1.8 7.1 1.9 7.7.2.2-.6.8-.9 1.2-.5 1.2 1.1.1 1.9-3.9 2.8-2.2.5-3.6.4-3.6-.2 0-.5-1.2-.8-2.7-.5-1.6.2-2.2.2-1.5 0 1.5-.6 1.5-1.6 0-3.1-.8-.8-.8-1.5.1-2.6.8-1 .9-1.6.1-2.1-1.3-.8-1.3-2.5 0-2.5.5 0 1.4.9 2 2.1zm7.8 1.6c.2 2.4-.1 3.2-1.9 3.6-2.8.8-3.9.1-3.9-2.4 0-2.4 1.7-2.5 2.3-.2.3 1 .5.3.6-1.5.1-4.2 2.5-3.8 2.9.5zm7.2-2c0 1.4-.2 1.5-.9.5-.6-1.1-1-1.1-1.9 0-.8 1-.4 2.1 1.7 4.6 3 3.4 4.6 4 5.4 1.9.3-.7.6-.5.6.5.1 1-.4 1.8-1.1 1.8-.6 0-2.1.8-3.2 1.7-2 1.7-2 1.7-.6 0 1.3-1.7 1-2.2-2.4-5.1-3.5-2.9-3.8-3.4-2.7-5.4 1.4-2.7 5.1-3 5.1-.5zm4 1.8c0 1.9-.4 3.5-1 3.5-.5 0-1-1.6-1-3.5s.5-3.5 1-3.5c.6 0 1 1.6 1 3.5zm4 .2c-.1 3.5-.2 3.7-1.5 1.9-1-1.3-1.1-2.4-.4-3.7 1.4-2.8 1.9-2.3 1.9 1.8zm8.7-2.1c.3.8.1 2.6-.5 4-1.5 3.1-3.5 3.2-2.3.1.5-1.3.6-2.9.2-3.6-1.1-1.7-2.3 1.3-1.4 3.5.4 1.2.2 1.5-.8 1.2-1.6-.5-2.3-3.2-1.5-5.4.7-1.9 5.5-1.8 6.3.2zm8 2.1c.1 2.3-.3 3.3-1.3 3.3-.8 0-1.4-1-1.4-2.5 0-1.4-.5-2.5-1.1-2.5-.7 0-1 1.2-.7 2.8.4 3-1.6 4.1-2.6 1.5-.3-.7-.1-1.3.4-1.3.6 0 1-.8 1-1.8 0-2.5 1-3.3 3.5-3 1.5.2 2 1.1 2.2 3.5zm27.6-2.5c.4 1 .8.9 1.6-.2.9-1.2 1.1-1 1.1 1.2 0 1.5.5 3 1 3.3.6.4.7 1.1.4 1.7-.5.7-1.2.5-2-.7-.8-1-1.7-1.5-2.1-1.1-1.3 1.2 1.3 4.1 4.3 4.7 2 .5 1.2.6-2.6.6-3 0-4.7-.2-3.7-.5 2.1-.4 2.2-1.6.2-3.2-1.5-1.3-2-5.1-.8-6.3 1-1.1 2.1-.8 2.6.5zm7.7 2.3c0 3.9-1.5 4.8-2.2 1.2-.5-2.7 0-4.7 1.3-4.7.5 0 .9 1.6.9 3.5zm4 0c0 3.8-1.5 4.7-2.5 1.5-.6-1.8.8-5 2.1-5 .2 0 .4 1.6.4 3.5zm4.6-1.1c.6 2.6-.1 4.6-1.7 4.6-.5 0-.9-1.6-.9-3.5 0-4 1.7-4.7 2.6-1.1zm4.4 1.2c0 2.4-.4 3.4-1.2 3.2-2.4-.8-2.2-6.8.2-6.8.5 0 1 1.6 1 3.6zm-96.7 6.8c3.4 1.6 4.4 2.5 3.4 2.9-.9.3-2.1-.1-2.7-.9-.7-.8-1.8-1.4-2.5-1.4s-1.8-.7-2.5-1.5c-1.6-2-1.4-1.9 4.3.9zM115 218c0 .5.7.7 1.5.4.8-.4 1.5-.1 1.5.5 0 1.5-2.3 1.4-3.8-.1-.9-.9-1.2-.8-1.2.5 0 1.7-1.1 2.2-2.3 1-.4-.3.1-1.2 1.1-1.9 2-1.6 3.2-1.7 3.2-.4zm32-.1c0 .5 1 1.2 2.3 1.4 2 .4 2 .4.1.6-1.1 0-2.9-.6-4-1.4-1.7-1.3-1.7-1.4-.1-1.5.9 0 1.7.4 1.7.9zm-24.9 2.3c-1.6.5-2.1 1.3-1.7 2.4.3.9.1 1.4-.5 1.2-.6-.2-1-.6-.9-.8.9-4.2 1.3-4.7 3.3-4.2 2 .5 2 .5-.2 1.4zm15.9 0c.8.3-1.6.4-5.3.2-7.5-.3-10.5-1.3-3.8-1.2 2.3 0 4.5-.2 4.8-.6.3-.3 1.1-.2 1.7.3.6.4 1.8 1.1 2.6 1.3zm29.6-.4c-1 .2-2.2 0-2.8-.6-.6-.6 0-.7 1.9-.4 2.1.5 2.3.7.9 1zm-64.9-.2c-.3.3-1.2.4-1.9.1-.8-.3-.5-.6.6-.6 1.1-.1 1.7.2 1.3.5zm39.7.5c-.3.6-.1 1.5.6 1.9 1.5.9 1.5 9.2.1 11.8-.7 1.2-.8.5-.4-2.5.3-2.3.2-5-.2-6-.5-1-.9-2-.9-2.3-.1-.3-.4-1-.8-1.6-.8-1.2-.1-2.4 1.4-2.4.5 0 .6.5.2 1.1zm-32.2 4.3c-.4 2.2.6 2 2.8-.7 1-1.2 2.2-1.9 2.6-1.5.4.4.1 1.5-.6 2.3-1 1.2-1 2.1-.1 4.2 1.6 3.4.4 4.4-1.9 1.5-1.8-2.1-3.9-1.4-2.5.8.3.5-.2 1-1.2 1-1.6 0-1.8-.7-1.6-4.8.1-2.6.2-4.9.2-5 .1-.2.7-.2 1.4.1.6.2 1.1 1.1.9 2.1zm22.8-.9c0 1-.6 1.2-1.7.8-1.5-.5-1.6-.4-.7.8 1.8 2.3 2.3 6.9.8 6.9-.9 0-1.5-1.2-1.5-3.3-.2-3.1-.2-3-.8.7-.6 3.8-.7 3.9-2.3 2.2-1.7-1.6-1.9-1.6-4.5.8-1.5 1.5-3.1 2.6-3.5 2.6-.5 0-.8-2-.8-4.4 0-3.7.4-4.5 2.2-4.9 1.5-.4 3 .1 4.3 1.3 2.2 2.1 3.7 1.8 2.9-.5-.3-.8.7-2 2.3-2.9 3.5-1.9 3.3-1.9 3.3-.1zm-7.5.5c.3.6-.1.7-.9.4-1.8-.7-2.1-1.4-.7-1.4.6 0 1.3.4 1.6 1zm13.5-.6c0 1.1-1.9 1.5-2.5.6-.3-.5.1-1 .9-1 .9 0 1.6.2 1.6.4zm-33.5 4.1c0 1.4-.3 2.5-.7 2.5-.4 0-.8.7-.8 1.5s-.5 1.5-1 1.5c-.7 0-.7-.6 0-2 .6-1 1-2.3.9-2.7-.1-.4-.1-1.7 0-2.7.1-2.7 1.4-1.1 1.6 1.9zm31.3.9c.2 1 0 2.2-.6 2.8-.6.6-1.1-.1-1.4-2.2-.5-3.2 1.4-3.8 2-.6zm4.2.6c0 1.6-.4 3-.9 3-1.2 0-2.4-3.7-1.6-5 1.2-2 2.5-1 2.5 2zm-69.2-.6c-.7.8-1.5 1.2-1.7 1.1-.5-.6 1-2.5 2-2.5.5 0 .4.6-.3 1.4zm43.4 7.4c1 .8 2.8 1.2 4.3 1 3-.6 3.4.7.3 1.5-1.3.4-3.3-.2-5.1-1.5-2.2-1.6-3.4-1.9-4.6-1.1-1.2.7-2 .6-3-.5-1.2-1.2-1.1-1.3.7-.8 1.1.4 2.3.2 2.7-.4.7-1.1 1.9-.6 4.7 1.8zM161 234c0 .5-.2 1-.4 1-.3 0-.8-.5-1.1-1-.3-.6-.1-1 .4-1 .6 0 1.1.4 1.1 1zm-33 1c1.1.7.8.8-1.3.6-1.5-.1-3-.6-3.4-.9-1-1.1 3-.8 4.7.3zm4 0c0 .5-.2 1-.4 1-.3 0-.8-.5-1.1-1-.3-.6-.1-1 .4-1 .6 0 1.1.4 1.1 1zm8 0c0 .5-.6 1-1.4 1-.8 0-1.8-.5-2.1-1-.3-.6.3-1 1.4-1 1.2 0 2.1.4 2.1 1zm17.7.6c-.3.3-1.2.4-1.9.1-.8-.3-.5-.6.6-.6 1.1-.1 1.7.2 1.3.5zm-22.7 2.8c0 1.1-1.9 1.5-2.5.6-.3-.5.1-1 .9-1 .9 0 1.6.2 1.6.4z"/><path d="M122.5 29c.3.5.8 1 1.1 1 .2 0 .4-.5.4-1 0-.6-.5-1-1.1-1-.5 0-.7.4-.4 1zm-12.6 11.8c-.8 2.1-.2 25.1.7 26.1.3.4 24.7.1 25.1-.3.1-.1.5-5.3.8-11.6.4-6.3.8-11.7 1-12 .2-.4-.3-1.6-1.1-2.8-1.4-2-2.3-2.1-13.5-2-11.8.2-12.1.2-13 2.6zm14.9 1.8c-.9.9-2.1 1.3-2.7 1-2-1.3-1.1-2.6 1.6-2.6 2.5 0 2.6.1 1.1 1.6zm-8.3 5.4c-2.3 2.5-2.2 7.6.2 10.8 2.7 3.7 9.2 4.3 12.2 1.1 3.1-3.4 3.6-7.4 1.3-11.3-2.4-4-1.4-7.1 1.2-3.5.9 1.3 1.6 2.9 1.6 3.6 0 .7.4 1.3 1 1.3 1.9 0 .2 8.1-2.2 10.2l-2.3 2.1 2.8-.7c3.9-.9 3.1 1.5-.9 2.6-3.1.9-18.1.5-19.1-.6-.3-.3-.1-1.2.5-1.9.9-1 .9-2.1 0-4.3-1.4-3.9-.3-9.9 2.5-12.7 2-2 2.2-2 2.5-.4.2 1-.4 2.7-1.3 3.7zm10.2 3.7c.6 3.3.7 6.2.2 6.7-.5.6-1.1-.3-1.5-2.2-.4-1.8-1.1-3.2-1.5-3.2-.5 0-.6-1.2-.3-2.8.6-2.6.6-2.6-1.1-1-1.5 1.4-1.6 2-.6 3.2.8 1 .9 1.6.1 2.1-.6.3-.8 1.1-.4 1.6.3.5.9.7 1.4.4.4-.3 1 .4 1.3 1.5.3 1.3 0 2-.9 2-.8 0-1.4-.4-1.4-1 0-.5-.6-.7-1.4-.4-1.8.7-3.2-1.6-1.6-2.6.7-.4.9-1.6.6-2.8-.4-1.1-.3-2.3.3-2.6.5-.3.7-1.5.4-2.6-.4-1.7 0-2 2.4-2 2.7 0 2.9.3 4 5.7zM79 86.5c0 .8.7 1.5 1.6 1.5 1.4 0 1.4-.3.4-1.5-.7-.8-1.4-1.5-1.6-1.5-.2 0-.4.7-.4 1.5zm32 7.4c0 2.4 1.9 3.8 3 2.1.4-.6 1.1-1.1 1.6-1.1.5.1.9-.5.9-1.2 0-.6-1.2-1.3-2.7-1.5-2.2-.3-2.8.1-2.8 1.7zm11 10.1c0 .5.5 1 1 1 .6 0 1-.5 1-1 0-.6-.4-1-1-1-.5 0-1 .4-1 1zm-10.3 1.7c-1 .9-.9 2.5.1 1.9.5-.3 1.8.2 2.8 1.2 1.1.9 3 2.5 4.2 3.6l2.1 1.9-.1-3.5c-.1-3.1-.4-3.4-2.6-3-1.6.3-2.8-.1-3.4-1.2-1-1.7-2-2-3.1-.9zm42.8 24.3c.3.5.8 1 1.1 1 .2 0 .4-.5.4-1 0-.6-.5-1-1.1-1-.5 0-.7.4-.4 1zM113 158.5c-1.8 2.2-.5 3 1.9 1.3 1.2-.8 1.8-1.8 1.4-2.1-1-1.1-1.9-.8-3.3.8zm-8.5 5.5c-.3.5.3 1 1.4 1 1.2 0 2.1-.5 2.1-1 0-.6-.6-1-1.4-1-.8 0-1.8.4-2.1 1zm25.5 44c0 .5.5 1 1 1 .6 0 1-.5 1-1 0-.6-.4-1-1-1-.5 0-1 .4-1 1zm2 4.4c0 2.2.3 2.7 1.1 1.9.8-.8.8-1.6 0-3-.9-1.6-1-1.4-1.1 1.1zm-11.4 16.2c-1.1 2.7-.7 3.7.9 2.4 1.6-1.4 2-4 .6-4-.5 0-1.2.7-1.5 1.6z"/></svg>