<svg xmlns="http://www.w3.org/2000/svg" viewBox="0 0 215 215"><circle cx="107.5" cy="107.5" r="107.5" fill="#25d366"/><g data-name="WhatsApp" fill="#fff"><path data-name="WhatsApp" d="M54.91 161l7.55-27.56a53.18 53.18 0 1146.09 26.64 53.18 53.18 0 01-25.41-6.48zm29.5-17l1.62 1a44.21 44.21 0 0022.5 6.17 44.22 44.22 0 10-37.45-20.72l1 1.67-4.47 16.31z"/><path data-name="WhatsApp" d="M135.34 119.54c-.33-.56-1.22-.89-2.55-1.55s-7.86-3.88-9.08-4.33-2.1-.66-3 .67-3.43 4.32-4.2 5.21-1.56 1-2.88.33a36.31 36.31 0 01-10.63-6.59 40 40 0 01-7.39-9.21c-.78-1.33-.09-2 .58-2.71s1.33-1.56 2-2.33a8.84 8.84 0 001.33-2.22 2.47 2.47 0 00-.11-2.33c-.33-.66-3-7.2-4.1-9.86s-2.17-2.24-3-2.29-1.66 0-2.54 0a4.89 4.89 0 00-3.6 1.67 14.91 14.91 0 00-4.65 11c0 6.54 4.76 12.86 5.43 13.75s9.37 14.31 22.7 20.06a75.55 75.55 0 007.58 2.8 18.27 18.27 0 008.37.53c2.55-.38 7.86-3.22 9-6.32s1.07-5.73.74-6.28z" fill-rule="evenodd"/></g></svg>